<?xml version="1.0" encoding="UTF-8" standalone="no"?>
<svg
   id="Layer_1"
   data-name="Layer 1"
   viewBox="0 0 1908.1801 1771.3844"
   version="1.1"
   sodipodi:docname="logo.svg"
   width="1908.1801"
   height="1771.3844"
   inkscape:version="1.2.2 (b0a84865, 2022-12-01)"
   xmlns:inkscape="http://www.inkscape.org/namespaces/inkscape"
   xmlns:sodipodi="http://sodipodi.sourceforge.net/DTD/sodipodi-0.dtd"
   xmlns:xlink="http://www.w3.org/1999/xlink"
   xmlns="http://www.w3.org/2000/svg"
   xmlns:svg="http://www.w3.org/2000/svg">
  <sodipodi:namedview
     id="namedview170"
     pagecolor="#ffffff"
     bordercolor="#000000"
     borderopacity="0.25"
     inkscape:showpageshadow="2"
     inkscape:pageopacity="0.0"
     inkscape:pagecheckerboard="0"
     inkscape:deskcolor="#d1d1d1"
     showgrid="false"
     inkscape:zoom="0.078666667"
     inkscape:cx="241.52542"
     inkscape:cy="889.83051"
     inkscape:window-width="1309"
     inkscape:window-height="456"
     inkscape:window-x="73"
     inkscape:window-y="38"
     inkscape:window-maximized="0"
     inkscape:current-layer="Layer_1" />
  <defs
     id="defs151">
    <style
       id="style132">
      .cls-1 {
        fill: #074754;
      }

      .cls-1, .cls-2, .cls-3, .cls-4, .cls-5, .cls-6, .cls-7, .cls-8 {
        stroke-width: 0px;
      }

      .cls-2 {
        fill: url(#linear-gradient);
      }

      .cls-3 {
        fill: #1697b7;
      }

      .cls-4 {
        fill: url(#linear-gradient-5);
      }

      .cls-5 {
        fill: url(#linear-gradient-2);
      }

      .cls-6 {
        fill: url(#linear-gradient-3);
      }

      .cls-7 {
        fill: url(#linear-gradient-4);
      }

      .cls-8 {
        fill: #094e67;
      }
    </style>
    <linearGradient
       id="linear-gradient"
       x1="1530.65"
       y1="1869.24"
       x2="1060.34"
       y2="650.27002"
       gradientUnits="userSpaceOnUse">
      <stop
         offset="0"
         stop-color="#0a4e52"
         id="stop134" />
      <stop
         offset="1"
         stop-color="#25aacd"
         id="stop136" />
    </linearGradient>
    <linearGradient
       id="linear-gradient-2"
       x1="1689.6"
       y1="2097.55"
       x2="1919.95"
       y2="625.84003"
       gradientUnits="userSpaceOnUse">
      <stop
         offset="0"
         stop-color="#0a4e52"
         id="stop139" />
      <stop
         offset="1"
         stop-color="#19b08f"
         id="stop141" />
    </linearGradient>
    <linearGradient
       id="linear-gradient-3"
       x1="1135.15"
       y1="2021.83"
       x2="664.84003"
       y2="802.87"
       xlink:href="#linear-gradient"
       gradientTransform="translate(-545.9,-614.31)" />
    <linearGradient
       id="linear-gradient-4"
       x1="1946.6899"
       y1="2137.8"
       x2="2177.05"
       y2="666.08002"
       xlink:href="#linear-gradient-2"
       gradientTransform="translate(-545.9,-614.31)" />
    <linearGradient
       id="linear-gradient-5"
       x1="672.04999"
       y1="1848.97"
       x2="1852.63"
       y2="2309.6799"
       gradientUnits="userSpaceOnUse"
       gradientTransform="translate(-545.9,-614.31)">
      <stop
         offset="0"
         stop-color="#0c9fb4"
         id="stop146" />
      <stop
         offset="1"
         stop-color="#065d82"
         id="stop148" />
    </linearGradient>
    <linearGradient
       inkscape:collect="always"
       xlink:href="#linear-gradient"
       id="linearGradient289"
       gradientUnits="userSpaceOnUse"
       x1="1530.65"
       y1="1869.24"
       x2="1060.34"
       y2="650.27002"
       gradientTransform="translate(-545.9,-614.31)" />
    <linearGradient
       inkscape:collect="always"
       xlink:href="#linear-gradient-2"
       id="linearGradient291"
       gradientUnits="userSpaceOnUse"
       x1="1689.6"
       y1="2097.55"
       x2="1919.95"
       y2="625.84003"
       gradientTransform="translate(-545.9,-614.31)" />
  </defs>
  <path
     class="cls-2"
     d="m 556.33,0 c 66.39,0 154.33,58.21 154.33,162.73 0,104.52 -67.05,143.17 -137.44,143.17 -96.51,0 -166.9,-79.45 -166.9,-166.9 0,-87.45 77.49,-139 150.01,-139 z"
     id="path153"
     style="fill:url(#linearGradient289)" />
  <path
     class="cls-5"
     d="m 1354.51,0 c -66.39,0 -154.33,58.21 -154.33,162.73 0,107.18 67.05,143.17 137.44,143.17 96.51,0 166.9,-79.45 166.9,-166.9 0,-87.45 -77.49,-139 -150.01,-139 z"
     id="path155"
     style="fill:url(#linearGradient291)" />
  <path
     class="cls-6"
     d="M 576.42,760.21 C 506.03,387.48 428.71,330.69 307.14,269.1 307.14,269.1 0,432.27 0,899.38 c 0,139.71 41.59,238.89 41.59,238.89 279.41,-42.66 536.43,42.66 810.51,204.76 l -48.34,-251.94 c -12.8,-66.7 -71.15,-114.93 -139.07,-114.93 h -108 c -199.43,0 -338.07,-129.04 -338.07,-308.21 0,-130.11 77.05,-234.89 118.11,-259.95 0,0 -55.72,98.91 -55.72,238.62 0,169.57 130.11,259.15 251.69,259.15 h 264.22 c 13.86,0 26.39,-13.6 26.39,-34.66 0,-21.06 -18.66,-53.86 -96.45,-73.8 C 674.67,783.93 576.43,760.2 576.43,760.2 Z"
     id="path157"
     style="fill:url(#linear-gradient-3)" />
  <path
     class="cls-7"
     d="m 1032.6,1446.88 72.7,-358.05 c 13.31,-65.55 70.95,-112.66 137.84,-112.66 h 108.36 c 199.43,0 338.07,-129.04 338.07,-308.21 0,-130.11 -77.05,-234.89 -118.11,-259.95 0,0 55.72,98.91 55.72,238.62 0,169.57 -130.11,259.15 -251.69,259.15 -121.58,0 -250.35,0 -264.22,0 -13.86,0 -26.39,-13.6 -26.39,-34.66 0,-21.06 18.66,-53.86 96.45,-73.8 52.19,-13.38 150.43,-37.11 150.43,-37.11 70.39,-372.73 147.71,-429.52 269.28,-491.11 0,0 307.14,163.17 307.14,630.28 0,139.71 -41.59,238.89 -41.59,238.89 -347.96,-38.93 -611.38,59.72 -687.1,391.39 -76.25,-35.73 -146.91,-82.78 -146.91,-82.78 z"
     id="path159"
     style="fill:url(#linear-gradient-4)" />
  <path
     class="cls-4"
     d="m 68.25,1212.92 c 0,0 35.33,75.59 57.32,115.58 0,0 27.99,-5.2 90.38,-5.2 195.16,0 345,94.38 515.63,199.96 170.63,105.58 268.22,175.97 396.99,227.96 0,0 123.98,-12.8 247.95,-77.59 -87.18,-12.8 -195.56,-44.79 -398.72,-168.37 -203.16,-123.58 -459.51,-303.54 -812.24,-303.54 -61.32,0 -97.31,11.2 -97.31,11.2 z"
     id="path161"
     style="fill:url(#linear-gradient-5)" />
  <path
     class="cls-3"
     d="m 1251.76,1560.06 c 54.39,-219.16 191.96,-358.33 469.51,-358.33 59.72,0 119.98,9.6 119.98,9.6 0,0 -45.32,94.38 -61.85,117.31 0,0 -18.13,-3.73 -73.59,-3.73 -154.1,0 -287.41,79.45 -393.52,251.69 0,0 -31.99,-7.47 -60.52,-16.53 z"
     id="path163" />
  <path
     class="cls-8"
     d="m 1729.27,1400.89 c -182.76,-18.93 -294.88,127.18 -345,193.3 0,0 53.86,8.27 119.18,11.46 138.64,-83.98 225.82,-204.76 225.82,-204.76 z"
     id="path165" />
  <path
     class="cls-1"
     d="m 177.57,1401.69 c 191.96,235.15 456.71,383.13 836.64,368.73 -192.76,-78.38 -529.5,-371.21 -788.65,-371.21 -40.79,0 -47.99,2.48 -47.99,2.48 z"
     id="path167" />
</svg>
